<svg xmlns="http://www.w3.org/2000/svg" width="192" height="192" viewBox="0 0 24 24" fill="#3498db">
    <path d="M12 2.5c-5.25 0-9.5 4.25-9.5 9.5s4.25 9.5 9.5 9.5 9.5-4.25 9.5-9.5-4.25-9.5-9.5-9.5zm0 17c-4.14 0-7.5-3.36-7.5-7.5s3.36-7.5 7.5-7.5 7.5 3.36 7.5 7.5-3.36 7.5-7.5 7.5z"/>
    <path d="M12 12.25c-1.24 0-2.25-.98-2.25-2.22 0-1.21.98-2.19 2.19-2.19 1.24 0 2.25 1 2.25 2.25S13.24 12.25 12 12.25zm0-3.5c-.69 0-1.25.56-1.25 1.25s.56 1.25 1.25 1.25 1.25-.56 1.25-1.25-.56-1.25-1.25-1.25z"/>
    <path d="M15.5 13.25h-7c-.28 0-.5-.22-.5-.5s.22-.5.5-.5h7c.28 0 .5.22.5.5s-.22.5-.5.5z"/>
</svg>